<?xml version="1.0" standalone="no"?>
<!DOCTYPE svg PUBLIC "-//W3C//DTD SVG 20010904//EN"
 "http://www.w3.org/TR/2001/REC-SVG-20010904/DTD/svg10.dtd">
<svg version="1.0" xmlns="http://www.w3.org/2000/svg"
 width="1024.000000pt" height="1024.000000pt" viewBox="0 0 1024.000000 1024.000000"
 preserveAspectRatio="xMidYMid meet">

<g transform="translate(0.000000,1024.000000) scale(0.100000,-0.100000)"
fill="#000000" stroke="none">
<path d="M4931 7129 c-347 -45 -674 -223 -894 -487 -66 -80 -167 -227 -167
-245 0 -5 20 9 45 32 24 22 73 55 108 72 39 19 72 44 86 65 37 54 181 187 262
241 484 327 1101 304 1570 -58 120 -93 180 -185 201 -307 10 -59 9 -79 -5
-137 -36 -144 -120 -222 -279 -260 -181 -43 -364 18 -618 205 -204 151 -328
215 -488 256 -192 49 -391 39 -571 -29 -118 -44 -186 -87 -281 -175 -142 -131
-172 -196 -205 -435 -19 -139 -16 -173 9 -98 77 233 247 424 471 527 121 56
229 77 365 71 217 -9 346 -61 584 -236 218 -159 324 -214 478 -246 306 -65
607 88 673 341 29 113 14 247 -39 352 -55 108 -249 283 -421 380 -261 147
-584 210 -884 171z"/>
<path d="M5404 6536 c-23 -23 -34 -43 -34 -62 0 -28 0 -28 15 -7 33 47 108 50
147 7 37 -42 27 -121 -20 -150 -44 -28 -76 -26 -148 11 -79 39 -148 65 -173
65 -13 -1 -12 -3 4 -12 11 -6 62 -43 113 -80 110 -82 126 -88 179 -79 123 23
186 143 134 258 -23 50 -79 83 -142 83 -33 0 -47 -6 -75 -34z"/>
<path d="M6416 6260 c13 -81 6 -221 -16 -305 -35 -138 -91 -238 -189 -335 -66
-65 -104 -94 -161 -122 -118 -57 -172 -70 -315 -75 -255 -10 -394 46 -730 291
-118 86 -241 149 -345 178 -69 18 -110 23 -215 22 -119 0 -138 -2 -226 -32
-205 -68 -380 -226 -488 -440 l-22 -43 25 -89 c14 -49 31 -101 37 -117 l12
-28 8 40 c28 149 145 326 274 415 260 179 530 176 796 -9 41 -28 112 -79 159
-112 178 -127 318 -194 482 -230 78 -17 116 -20 233 -16 167 6 247 26 380 95
72 38 110 67 191 147 117 115 158 187 199 350 l25 96 -20 82 c-19 81 -71 235
-91 266 -7 11 -8 3 -3 -29z"/>
<path d="M6522 5627 c-13 -26 -40 -71 -59 -100 -26 -37 -40 -76 -53 -137 -90
-428 -429 -815 -843 -959 -155 -54 -273 -74 -447 -74 -174 0 -292 20 -447 74
-190 66 -335 160 -494 318 -112 112 -199 239 -255 370 -35 84 -40 90 -45 65
-4 -16 -7 -68 -8 -115 -1 -81 1 -88 35 -145 123 -205 341 -407 559 -517 222
-112 391 -151 660 -151 201 0 308 17 472 75 197 70 410 206 543 348 162 173
266 348 340 570 42 126 73 298 68 377 l-3 49 -23 -48z"/>
<path d="M4316 5644 c-33 -8 -68 -22 -78 -30 -9 -9 -27 -46 -39 -81 -40 -122
-14 -272 66 -377 32 -43 116 -100 175 -121 65 -23 173 -21 242 5 68 25 146 95
179 160 15 31 24 69 27 120 7 128 -43 211 -162 266 -65 30 -118 30 -181 0 -87
-41 -125 -97 -125 -183 0 -117 105 -206 209 -175 43 13 86 56 95 95 8 34 1 34
-27 1 -16 -19 -36 -27 -68 -31 -38 -4 -50 -1 -76 21 -53 45 -49 122 9 171 29
24 38 27 95 23 70 -4 100 -25 134 -90 39 -77 14 -197 -55 -255 -138 -116 -343
-67 -427 103 -20 40 -24 65 -24 134 0 99 19 149 86 218 46 47 42 49 -55 26z"/>
<path d="M2935 3746 c-48 -21 -96 -67 -116 -111 -22 -48 -25 -142 -5 -189 35
-85 146 -145 247 -133 122 15 201 100 201 217 0 99 -52 180 -139 217 -41 17
-149 16 -188 -1z m183 -73 c51 -38 67 -70 67 -136 0 -49 -5 -69 -23 -95 -80
-112 -267 -73 -288 60 -13 79 24 154 91 184 40 19 120 12 153 -13z"/>
<path d="M3550 3739 c-103 -46 -153 -142 -129 -247 36 -164 232 -236 367 -135
l33 25 -22 24 -22 23 -36 -25 c-46 -31 -130 -33 -179 -4 -65 40 -91 127 -58
203 39 92 153 121 240 62 l34 -23 22 23 21 22 -31 26 c-59 50 -163 61 -240 26z"/>
<path d="M4117 3752 l-127 -3 2 -217 3 -217 163 -3 162 -2 0 35 0 36 -125 -3
-125 -3 0 68 0 67 105 0 105 0 0 30 0 30 -105 0 -105 0 0 60 0 60 120 0 120 0
0 35 c0 33 -2 35 -32 32 -18 -1 -90 -3 -161 -5z"/>
<path d="M4561 3547 c-51 -117 -95 -218 -98 -224 -4 -9 6 -13 31 -13 35 0 38
3 61 55 l25 55 110 0 110 0 25 -55 c22 -52 26 -55 59 -55 20 0 36 4 36 8 0 12
-181 415 -191 426 -5 5 -24 11 -42 12 l-34 3 -92 -212z m172 31 c21 -47 37
-89 37 -92 0 -3 -36 -6 -80 -6 -44 0 -80 3 -80 8 0 18 76 190 81 184 3 -4 22
-46 42 -94z"/>
<path d="M5950 3537 l0 -225 33 2 32 2 0 147 c0 81 2 147 5 147 3 0 29 -44 59
-98 100 -178 106 -181 164 -74 20 37 52 92 71 122 l35 55 3 -150 3 -150 33 -3
32 -3 0 226 0 226 -32 -3 c-31 -3 -38 -12 -113 -143 -44 -77 -85 -141 -90
-143 -6 -2 -47 61 -91 140 -75 132 -84 143 -113 146 l-31 3 0 -224z"/>
<path d="M6900 3751 c0 -2 11 -18 23 -35 13 -17 47 -63 75 -103 l51 -71 -46
-64 c-25 -34 -61 -84 -80 -110 l-35 -48 44 0 c41 0 44 2 81 58 20 31 47 69 60
84 l22 27 59 -84 c57 -82 60 -85 99 -85 l39 0 -17 28 c-10 15 -45 65 -77 111
l-59 83 27 42 c15 22 47 68 71 101 24 32 43 62 43 65 0 3 -18 4 -40 2 -37 -4
-44 -10 -92 -78 -29 -41 -55 -71 -59 -67 -4 5 -30 39 -58 77 -47 65 -52 69
-90 70 -23 0 -41 -1 -41 -3z"/>
<path d="M5074 3708 c3 -24 5 -122 5 -218 l1 -175 35 -2 34 -2 3 156 3 156
120 -151 c111 -140 122 -152 152 -152 l33 0 0 215 0 215 -35 0 -35 0 0 -150
c0 -84 -4 -150 -9 -150 -5 0 -11 4 -13 10 -1 5 -52 72 -113 149 -107 135 -111
139 -148 140 l-39 1 6 -42z"/>
<path d="M6640 3535 l0 -215 40 0 40 0 0 215 0 215 -40 0 -40 0 0 -215z"/>
<path d="M5230 3155 c0 -8 5 -15 10 -15 6 0 10 7 10 15 0 8 -4 15 -10 15 -5 0
-10 -7 -10 -15z"/>
<path d="M6530 3081 c0 -50 5 -93 10 -96 6 -4 10 28 10 89 0 57 -4 96 -10 96
-6 0 -10 -36 -10 -89z"/>
<path d="M2855 3148 c-52 -28 -62 -98 -21 -137 27 -25 89 -32 110 -11 8 8 1 9
-29 5 -52 -9 -86 16 -87 63 -2 50 27 75 79 69 45 -5 59 6 21 17 -32 8 -50 7
-73 -6z"/>
<path d="M3670 3070 c0 -53 4 -90 10 -90 6 0 10 37 10 90 0 53 -4 90 -10 90
-6 0 -10 -37 -10 -90z"/>
<path d="M3828 3149 c-39 -22 -6 -89 43 -89 9 0 22 -7 29 -15 10 -12 10 -18
-1 -31 -10 -12 -24 -15 -58 -10 -54 7 -44 -11 10 -20 49 -8 88 23 72 58 -7 16
-25 29 -51 36 -48 15 -59 27 -41 48 8 10 24 14 46 12 20 -3 32 0 30 6 -5 15
-58 18 -79 5z"/>
<path d="M4948 3149 c-21 -12 -24 -52 -5 -66 6 -6 25 -15 41 -20 68 -22 55
-68 -16 -59 -44 5 -51 -9 -10 -19 33 -7 80 8 88 29 10 25 -13 52 -54 64 -22 7
-42 19 -45 26 -9 22 19 39 53 34 32 -5 41 6 14 16 -22 9 -46 7 -66 -5z"/>
<path d="M6002 3148 c-15 -15 -15 -41 -1 -55 8 -8 5 -17 -10 -32 -25 -25 -27
-44 -5 -65 18 -19 47 -20 75 -5 15 7 24 7 35 -2 9 -7 14 -8 14 -1 0 6 -5 14
-10 17 -7 4 -7 12 0 25 6 11 6 21 1 24 -5 3 -12 -1 -15 -10 -5 -14 -10 -12
-28 11 -19 25 -20 28 -5 37 31 17 14 68 -23 68 -9 0 -21 -5 -28 -12z m46 -31
c-2 -11 -9 -22 -15 -25 -16 -4 -27 22 -19 43 8 22 38 6 34 -18z m13 -110 c-5
-5 -21 -7 -37 -5 -32 3 -43 30 -23 54 10 13 16 11 41 -13 16 -15 24 -31 19
-36z"/>
<path d="M6236 3147 c-11 -8 -17 -22 -14 -37 3 -23 10 -29 63 -52 19 -8 30
-21 30 -33 0 -18 -6 -20 -52 -19 -56 2 -63 -10 -13 -21 38 -8 67 1 80 26 16
28 -4 57 -45 65 -44 8 -62 28 -44 50 8 10 24 14 46 12 34 -4 45 5 17 16 -25
10 -49 7 -68 -7z"/>
<path d="M6870 3150 c0 -5 5 -10 10 -10 6 0 10 5 10 10 0 6 -4 10 -10 10 -5 0
-10 -4 -10 -10z"/>
<path d="M4223 3124 c-6 -13 -7 -24 -2 -24 5 0 9 -22 9 -49 0 -54 18 -79 47
-65 16 7 15 8 -4 11 -22 4 -25 11 -25 48 0 42 4 54 20 58 16 4 16 5 0 6 -10 0
-18 7 -18 15 0 25 -15 25 -27 0z"/>
<path d="M3412 3120 c-7 -12 -8 -20 -2 -20 5 0 10 -22 10 -48 0 -26 5 -53 12
-60 15 -15 48 -16 48 -2 0 6 -9 10 -20 10 -17 0 -20 7 -20 49 0 43 3 50 23 54
l22 4 -22 2 c-13 0 -23 8 -23 16 0 21 -13 19 -28 -5z"/>
<path d="M6770 3126 c0 -8 -6 -17 -12 -19 -10 -4 -10 -6 0 -6 7 -1 12 -16 12
-42 0 -22 5 -49 10 -60 11 -20 50 -27 50 -9 0 6 -9 10 -20 10 -17 0 -20 7 -20
49 0 39 4 51 18 54 16 4 16 5 0 6 -10 0 -18 8 -18 16 0 8 -4 15 -10 15 -5 0
-10 -6 -10 -14z"/>
<path d="M3000 3094 c-18 -21 -17 -72 2 -91 21 -21 64 -20 88 2 41 37 12 105
-44 105 -19 0 -39 -7 -46 -16z m84 -27 c13 -35 -1 -61 -34 -65 -43 -7 -66 51
-34 83 24 24 57 15 68 -18z"/>
<path d="M3155 3100 c-4 -6 5 -7 23 -4 19 4 32 1 41 -10 17 -20 16 -20 -34
-32 -29 -6 -41 -15 -43 -30 -5 -32 23 -50 59 -37 18 7 29 8 29 2 0 -6 4 -8 8
-5 13 8 8 92 -7 110 -15 18 -66 22 -76 6z m70 -60 c10 -16 -15 -40 -41 -40
-31 0 -32 28 -1 40 30 12 35 12 42 0z"/>
<path d="M3292 3093 c-14 -27 -5 -41 34 -53 48 -16 44 -38 -8 -42 l-43 -4 39
-8 c33 -7 41 -6 53 10 18 25 13 36 -28 55 -44 22 -45 45 -1 43 17 -1 32 2 32
7 0 17 -69 10 -78 -8z"/>
<path d="M3525 3099 c-5 -8 1 -9 22 -5 36 8 68 -18 42 -35 -8 -5 -22 -9 -31
-9 -46 0 -64 -34 -32 -61 12 -10 22 -10 44 -2 21 8 30 8 34 -1 3 -6 4 18 3 54
l-2 65 -37 3 c-20 2 -39 -2 -43 -9z m75 -63 c0 -22 -17 -36 -41 -36 -27 0 -39
17 -22 33 7 8 63 10 63 3z"/>
<path d="M3950 3105 c0 -2 11 -30 25 -61 29 -65 25 -94 -11 -94 -14 0 -22 -4
-19 -10 10 -16 34 -12 52 9 20 24 75 152 68 159 -8 8 -12 2 -33 -53 l-19 -49
-27 52 c-23 46 -36 63 -36 47z"/>
<path d="M4099 3094 c-18 -22 -1 -46 40 -57 43 -11 34 -32 -13 -31 -41 1 -48
-11 -11 -20 64 -16 89 44 29 69 -40 17 -41 40 -1 40 14 1 29 4 33 8 4 4 -9 7
-28 7 -20 0 -41 -7 -49 -16z"/>
<path d="M4344 3102 c-59 -39 -16 -135 52 -118 35 9 30 23 -6 18 -29 -4 -60
11 -60 29 0 5 25 9 55 9 30 0 55 4 55 9 0 4 -9 20 -21 35 -20 25 -53 33 -75
18z m60 -18 c22 -21 11 -34 -29 -34 -19 0 -36 4 -40 9 -7 12 22 41 40 41 7 0
21 -7 29 -16z"/>
<path d="M4480 3042 c0 -41 4 -61 10 -57 6 4 10 24 8 46 -2 47 19 74 51 64 18
-5 21 -14 21 -55 0 -27 5 -52 10 -55 6 -4 10 13 10 44 0 39 4 53 19 61 25 13
27 13 45 -6 10 -9 16 -33 16 -61 0 -26 3 -43 7 -39 10 10 3 99 -9 114 -13 15
-64 16 -73 2 -5 -8 -11 -8 -20 0 -7 6 -31 9 -54 8 l-41 -3 0 -63z"/>
<path d="M4731 3092 c-13 -24 -1 -41 35 -51 16 -4 31 -16 32 -25 3 -16 -2 -18
-32 -14 -40 4 -49 -8 -12 -18 31 -7 68 12 64 34 -2 9 -20 25 -41 35 -20 9 -37
21 -37 26 0 13 34 23 54 15 9 -3 16 -1 16 5 0 19 -68 13 -79 -7z"/>
<path d="M5097 3092 c-45 -50 6 -130 67 -106 28 11 17 20 -19 16 -29 -4 -36 0
-44 19 -17 48 22 95 60 71 18 -11 20 -11 17 0 -7 21 -62 22 -81 0z"/>
<path d="M5230 3050 c0 -33 4 -60 10 -60 6 0 10 27 10 60 0 33 -4 60 -10 60
-6 0 -10 -27 -10 -60z"/>
<path d="M5307 3092 c-25 -28 -21 -67 9 -91 31 -25 44 -26 69 -8 16 13 15 14
-14 9 -30 -4 -61 11 -61 29 0 5 23 9 50 9 42 0 50 3 50 18 0 46 -72 69 -103
34z m73 -7 c17 -20 4 -35 -30 -35 -36 0 -49 19 -25 37 24 17 40 17 55 -2z"/>
<path d="M5459 3100 c-5 -29 -3 -113 3 -116 5 -3 8 15 8 39 0 55 26 85 59 67
17 -9 21 -20 21 -61 0 -31 4 -48 10 -44 16 10 12 78 -6 103 -12 18 -24 22 -55
20 -21 -2 -39 -5 -40 -8z"/>
<path d="M5626 3088 c-17 -24 -21 -56 -8 -74 15 -23 50 -34 76 -24 36 13 33
23 -4 15 -39 -9 -60 8 -60 46 0 38 40 60 66 38 15 -12 17 -12 12 1 -2 8 -18
16 -35 18 -23 2 -35 -3 -47 -20z"/>
<path d="M5766 3091 c-27 -30 -18 -83 17 -99 15 -7 36 -10 47 -7 30 10 24 22
-8 17 -19 -2 -35 3 -47 15 -18 17 -17 18 38 21 61 3 68 12 41 50 -19 28 -64
29 -88 3z m65 -1 c33 -18 23 -37 -21 -37 -41 0 -51 12 -28 35 15 15 24 15 49
2z"/>
<path d="M6387 3092 c-55 -60 26 -149 83 -92 25 25 26 72 2 93 -24 22 -65 21
-85 -1z m67 -5 c12 -9 17 -23 14 -47 -3 -31 -6 -35 -35 -38 -27 -3 -35 1 -44
22 -10 20 -9 30 5 51 18 28 34 31 60 12z"/>
<path d="M6600 3062 c0 -64 26 -92 71 -75 18 7 29 8 29 2 0 -6 4 -8 9 -4 9 5
4 115 -5 124 -2 2 -4 -14 -4 -35 0 -51 -18 -77 -51 -72 -21 3 -24 8 -27 56 -4
66 -22 69 -22 4z"/>
<path d="M6870 3051 c0 -33 5 -63 10 -66 6 -4 10 18 10 59 0 37 -4 66 -10 66
-6 0 -10 -26 -10 -59z"/>
<path d="M6951 3086 c-37 -39 -9 -106 44 -106 24 0 65 41 65 65 0 23 -41 65
-64 65 -12 0 -33 -11 -45 -24z m87 -35 c4 -28 -14 -51 -42 -51 -47 0 -63 57
-24 84 19 13 25 14 43 2 11 -7 21 -23 23 -35z"/>
<path d="M7100 3046 c0 -44 4 -65 10 -61 6 4 10 14 9 23 -4 45 3 72 20 81 30
16 54 -9 62 -65 l6 -49 2 56 c0 31 -4 60 -11 67 -15 15 -55 16 -63 2 -5 -8
-11 -7 -21 1 -12 10 -14 1 -14 -55z"/>
<path d="M7266 3094 c-22 -21 -5 -50 34 -57 18 -4 30 -13 30 -22 0 -16 -7 -18
-55 -16 -23 2 -27 0 -15 -8 22 -16 66 -13 80 4 18 22 6 42 -35 59 -19 8 -35
19 -35 24 0 14 25 22 49 15 12 -3 21 -1 21 6 0 17 -56 13 -74 -5z"/>
</g>
</svg>
